<?xml version="1.0" standalone="no"?>
<!DOCTYPE svg PUBLIC "-//W3C//DTD SVG 20010904//EN"
 "http://www.w3.org/TR/2001/REC-SVG-20010904/DTD/svg10.dtd">
<svg version="1.0" xmlns="http://www.w3.org/2000/svg"
 width="256.000000pt" height="256.000000pt" viewBox="0 0 256.000000 256.000000"
 preserveAspectRatio="xMidYMid meet">
<metadata>
Created by potrace 1.14, written by Peter Selinger 2001-2017
</metadata>
<g transform="translate(0.000000,256.000000) scale(0.100000,-0.100000)"
fill="#000000" stroke="none">
<path d="M0 1280 l0 -1280 1280 0 1280 0 0 1280 0 1280 -1280 0 -1280 0 0
-1280z m945 575 c129 -34 215 -105 255 -213 19 -49 21 -72 17 -157 -5 -123
-31 -195 -92 -262 -81 -91 -185 -129 -373 -140 l-113 -6 3 -111 3 -111 60 -21
60 -21 3 -77 3 -76 -261 0 -261 0 3 77 3 77 62 20 63 20 0 407 0 407 -62 25
-63 25 -3 70 -3 71 68 4 c37 2 181 4 318 5 199 2 263 -1 310 -13z m1139 -14
c114 -45 175 -126 184 -242 9 -128 -45 -231 -146 -283 l-45 -23 54 -25 c69
-31 124 -79 152 -132 33 -62 31 -200 -4 -276 -43 -92 -104 -140 -224 -176 -53
-16 -101 -18 -395 -19 l-335 0 -3 54 c-5 87 0 95 68 116 l60 18 -2 410 -3 409
-50 20 c-66 25 -76 41 -73 108 l3 55 65 6 c36 4 193 6 350 5 273 -2 287 -3
344 -25z"/>
<path d="M645 1658 c-3 -7 -4 -95 -3 -193 l3 -180 85 2 c132 2 195 41 221 136
14 50 -1 138 -29 176 -41 55 -66 65 -172 69 -79 3 -101 1 -105 -10z"/>
<path d="M1717 1663 c-4 -3 -7 -69 -7 -146 l0 -139 98 4 c85 3 103 6 135 28
43 30 59 62 59 123 0 100 -53 137 -196 137 -45 0 -86 -3 -89 -7z"/>
<path d="M1715 1189 c-3 -8 -4 -84 -3 -169 l3 -155 105 0 c87 1 112 4 139 20
49 29 73 67 79 124 7 72 -24 133 -83 161 -58 28 -231 41 -240 19z"/>
</g>
</svg>
